<?xml version="1.0" standalone="no"?>
<!DOCTYPE svg PUBLIC "-//W3C//DTD SVG 20010904//EN"
 "http://www.w3.org/TR/2001/REC-SVG-20010904/DTD/svg10.dtd">
<svg version="1.0" xmlns="http://www.w3.org/2000/svg"
 width="500.000000pt" height="500.000000pt" viewBox="0 0 500.000000 500.000000"
 preserveAspectRatio="xMidYMid meet">

<g transform="translate(0.000000,500.000000) scale(0.100000,-0.100000)"
fill="#000000" stroke="none">
<path d="M0 2500 l0 -2500 2500 0 2500 0 0 2500 0 2500 -2500 0 -2500 0 0
-2500z m2323 1383 c-7 -2 -19 -2 -25 0 -7 3 -2 5 12 5 14 0 19 -2 13 -5z m295
0 c-10 -2 -28 -2 -40 0 -13 2 -5 4 17 4 22 1 32 -1 23 -4z m-375 -10 c-7 -2
-19 -2 -25 0 -7 3 -2 5 12 5 14 0 19 -2 13 -5z m450 0 c-7 -2 -19 -2 -25 0 -7
3 -2 5 12 5 14 0 19 -2 13 -5z m54 -9 c-3 -3 -12 -4 -19 -1 -8 3 -5 6 6 6 11
1 17 -2 13 -5z m46 -11 c-7 -2 -19 -2 -25 0 -7 3 -2 5 12 5 14 0 19 -2 13 -5z
m62 -13 c13 -5 14 -9 5 -9 -8 0 -24 4 -35 9 -13 5 -14 9 -5 9 8 0 24 -4 35 -9z
m65 -20 c18 -12 2 -12 -25 0 -13 6 -15 9 -5 9 8 0 22 -4 30 -9z m80 -30 c8 -5
11 -10 5 -10 -5 0 -17 5 -25 10 -8 5 -10 10 -5 10 6 0 17 -5 25 -10z m139 -65
c59 -31 120 -67 136 -81 l30 -26 -34 23 c-19 12 -84 49 -145 81 -61 31 -107
58 -102 58 5 0 56 -25 115 -55z m-751 -34 c3 -9 -2 -11 -17 -6 -11 3 -26 3
-33 -1 -8 -5 1 -12 23 -19 42 -14 51 -48 18 -65 -16 -9 -28 -9 -45 -1 -28 12
-34 37 -6 26 27 -11 45 -11 49 1 2 6 -10 14 -27 17 -32 7 -46 27 -36 53 7 19
67 16 74 -5z m237 9 c4 -6 -5 -10 -19 -10 -16 0 -26 -6 -26 -15 0 -8 9 -15 20
-15 11 0 20 -4 20 -10 0 -5 -9 -10 -20 -10 -11 0 -20 -7 -20 -15 0 -8 9 -15
20 -15 11 0 20 -5 20 -11 0 -10 -56 -6 -67 4 -1 2 0 27 4 55 5 49 8 52 34 52
15 0 31 -4 34 -10z m202 -60 c8 -42 19 -46 27 -8 4 23 9 29 17 21 13 -13 -10
-103 -26 -106 -5 -1 -14 13 -20 31 -11 38 -21 41 -29 7 -9 -35 -30 -32 -23 3
16 80 43 106 54 52z m-1167 6 c0 -2 -8 -10 -17 -17 -16 -13 -17 -12 -4 4 13
16 21 21 21 13z m-40 -30 c0 -2 -8 -10 -17 -17 -16 -13 -17 -12 -4 4 13 16 21
21 21 13z m1711 -13 c13 -16 12 -17 -3 -4 -17 13 -22 21 -14 21 2 0 10 -8 17
-17z m40 -30 c13 -16 12 -17 -3 -4 -10 7 -18 15 -18 17 0 8 8 3 21 -13z
m-1801 3 c0 -2 -8 -10 -17 -17 -16 -13 -17 -12 -4 4 13 16 21 21 21 13z m1895
-86 c33 -33 57 -60 54 -60 -2 0 -31 27 -64 60 -33 33 -57 60 -54 60 2 0 31
-27 64 -60z m-1965 26 c0 -2 -8 -10 -17 -17 -16 -13 -17 -12 -4 4 13 16 21 21
21 13z m1720 -39 c0 -7 -5 -18 -12 -25 -15 -15 4 -17 31 -3 10 6 23 6 32 1 11
-7 7 -12 -18 -21 -29 -9 -33 -15 -33 -46 0 -45 -23 -39 -30 8 -4 25 -7 30 -12
17 -8 -20 -28 -24 -28 -7 0 14 53 89 63 89 4 0 7 -6 7 -13z m-1810 -61 c0 -2
-8 -10 -17 -17 -16 -13 -17 -12 -4 4 13 16 21 21 21 13z m2156 -28 l29 -33
-32 29 c-31 28 -38 36 -30 36 2 0 16 -15 33 -32z m-160 -87 c-10 -11 -12 -21
-6 -31 8 -13 13 -13 31 -2 13 8 25 10 31 4 5 -5 -8 -23 -35 -45 -44 -36 -72
-40 -41 -6 13 15 14 20 2 32 -11 13 -15 13 -31 -1 -9 -8 -20 -12 -24 -8 -9 9
68 87 79 80 5 -3 2 -14 -6 -23z m-2156 -111 c-6 -11 -13 -20 -16 -20 -2 0 0 9
6 20 6 11 13 20 16 20 2 0 0 -9 -6 -20z m2343 -90 c15 -25 16 -30 4 -30 -8 0
-18 8 -21 17 -5 12 -10 13 -18 5 -8 -8 -8 -15 1 -26 8 -9 8 -16 2 -20 -5 -4
-14 1 -19 10 -14 25 -35 8 -22 -17 8 -14 7 -19 -3 -19 -8 0 -19 11 -25 25 -10
22 -8 27 31 54 23 17 44 30 47 31 3 0 14 -13 23 -30z m-2400 -25 c-3 -9 -8
-14 -10 -11 -3 3 -2 9 2 15 9 16 15 13 8 -4z m-22 -52 c-12 -20 -14 -14 -5 12
4 9 9 14 11 11 3 -2 0 -13 -6 -23z m1424 -57 l74 -36 -16 -45 -15 -45 -62 64
c-52 54 -71 67 -121 81 -50 15 -66 16 -113 5 -70 -16 -125 -63 -125 -108 0
-60 57 -98 191 -128 62 -14 82 -23 82 -35 0 -9 7 -33 16 -54 15 -36 14 -37 -3
-30 -10 4 -69 20 -131 35 -170 43 -232 87 -232 166 0 66 53 124 144 156 40 15
72 18 144 15 82 -4 101 -8 167 -41z m-1450 -16 c-56 -160 -74 -419 -40 -585
16 -77 74 -265 85 -275 7 -7 30 -59 30 -68 0 -4 -5 0 -10 8 -8 12 -11 13 -19
1 -6 -10 -11 -6 -20 15 -7 20 -10 23 -10 9 4 -91 -5 -72 -56 115 -64 235 -52
524 31 783 9 27 18 46 20 44 2 -2 -3 -23 -11 -47z m2545 -33 c0 -7 -12 -20
-27 -29 l-28 -17 36 -1 c51 0 55 -11 17 -42 l-33 -28 43 6 c27 4 42 3 42 -4 0
-12 -16 -18 -77 -27 -54 -8 -58 11 -10 50 l32 26 -44 -3 c-61 -4 -63 15 -5 52
55 34 54 34 54 17z m189 -97 c0 -9 -4 -8 -9 5 -5 11 -9 27 -9 35 0 9 4 8 9 -5
5 -11 9 -27 9 -35z m8 -42 c-3 -8 -6 -5 -6 6 -1 11 2 17 5 13 3 -3 4 -12 1
-19z m10 -40 c-3 -8 -6 -5 -6 6 -1 11 2 17 5 13 3 -3 4 -12 1 -19z m-1310 -44
c69 -45 96 -120 73 -204 -14 -54 -56 -94 -120 -117 l-48 -17 -4 -52 c-5 -85
-2 -86 65 -15 34 36 102 107 150 158 85 90 99 117 75 141 -9 9 0 12 42 12 l55
0 -129 -132 -129 -133 51 -5 c74 -8 93 -31 136 -165 40 -125 71 -178 104 -183
29 -4 28 -16 -3 -30 -34 -16 -50 -15 -85 3 -37 19 -59 62 -99 193 -18 57 -41
112 -52 123 -34 34 -75 25 -131 -29 l-51 -48 2 -99 c2 -106 10 -131 44 -145
15 -6 -13 -9 -86 -9 l-108 -1 28 24 28 24 3 180 4 180 -43 7 c-71 11 -135 34
-178 66 l-41 29 1 83 0 82 20 -51 c26 -69 92 -141 154 -170 78 -37 85 -34 85
34 -1 81 -15 144 -36 159 -15 11 -4 13 77 12 52 0 88 -3 81 -6 -21 -8 -30 -45
-33 -129 l-2 -79 28 2 c16 1 43 16 62 35 43 41 46 97 8 153 -20 29 -65 128
-65 143 0 9 33 -2 67 -24z m1320 -6 c-3 -7 -5 -2 -5 12 0 14 2 19 5 13 2 -7 2
-19 0 -25z m22 -112 c2 -60 -6 -39 -12 34 -3 41 -2 54 3 35 4 -16 8 -48 9 -69z
m8 -213 c-2 -32 -3 -8 -3 52 0 61 1 87 3 58 2 -29 2 -78 0 -110z m-10 -140
c-3 -10 -5 -4 -5 12 0 17 2 24 5 18 2 -7 2 -21 0 -30z m-10 -65 c-3 -8 -6 -5
-6 6 -1 11 2 17 5 13 3 -3 4 -12 1 -19z m-2657 -297 c1 8 6 4 13 -9 7 -12 16
-20 19 -17 3 4 9 -4 14 -17 4 -13 5 -23 3 -23 -2 0 12 -23 32 -50 19 -28 34
-60 33 -73 -1 -16 5 -24 25 -29 14 -3 32 -15 39 -25 7 -10 18 -16 23 -12 5 3
9 2 8 -3 -3 -20 2 -25 15 -14 11 9 16 9 22 0 4 -7 3 -9 -4 -5 -6 3 -13 2 -16
-3 -4 -5 -2 -12 4 -16 5 -3 10 -11 10 -18 0 -6 -17 5 -37 24 l-37 34 31 -39
c17 -21 29 -44 27 -51 -3 -6 15 -30 39 -52 27 -25 41 -45 36 -50 -6 -6 -4 -10
5 -10 9 0 13 8 10 20 -4 23 -25 50 -32 42 -7 -7 -52 35 -52 48 0 5 7 4 15 -3
14 -12 19 -7 16 13 -1 5 3 6 8 3 5 -4 8 -15 6 -26 -3 -15 1 -19 18 -16 15 2
22 10 21 24 -1 12 2 19 6 17 7 -4 6 -40 0 -40 -1 0 -3 -8 -5 -18 -2 -11 2 -16
8 -14 7 2 12 9 12 15 0 5 3 13 7 17 3 4 5 -1 3 -12 -2 -10 -4 -18 -5 -18 -1 0
-3 -17 -4 -38 -2 -23 2 -36 8 -34 6 2 11 13 11 25 0 11 4 24 8 29 5 4 7 2 5
-6 -1 -7 3 -16 11 -19 9 -3 11 0 6 8 -6 9 -3 9 14 0 12 -6 19 -15 16 -20 -3
-5 25 -25 62 -44 37 -19 64 -35 60 -36 -4 0 -25 9 -47 20 -45 23 -54 25 -44 9
5 -8 1 -8 -14 0 -28 15 -31 14 -28 -6 2 -9 9 -19 16 -21 8 -3 10 0 5 9 -5 7 9
2 31 -11 45 -27 70 -48 36 -30 -13 6 -26 9 -29 7 -3 -3 9 -13 26 -22 17 -8 31
-18 31 -21 0 -3 -16 3 -36 15 -41 24 -48 26 -38 9 4 -8 3 -10 -2 -5 -5 5 -9
14 -9 19 0 6 -6 13 -14 16 -9 3 -11 0 -5 -9 7 -12 5 -12 -9 0 -9 7 -14 18 -10
24 4 6 0 8 -9 4 -18 -6 -52 25 -41 38 5 4 1 6 -8 2 -32 -11 -221 204 -313 356
-45 75 -70 161 -39 135 10 -8 13 -7 13 3z m543 -268 c-7 -2 -19 -2 -25 0 -7 3
-2 5 12 5 14 0 19 -2 13 -5z m110 -10 c-7 -2 -21 -2 -30 0 -10 3 -4 5 12 5 17
0 24 -2 18 -5z m80 -10 c-7 -2 -19 -2 -25 0 -7 3 -2 5 12 5 14 0 19 -2 13 -5z
m54 -9 c-3 -3 -12 -4 -19 -1 -8 3 -5 6 6 6 11 1 17 -2 13 -5z m-150 -10 c-3
-3 -12 -4 -19 -1 -8 3 -5 6 6 6 11 1 17 -2 13 -5z m190 0 c-3 -3 -12 -4 -19
-1 -8 3 -5 6 6 6 11 1 17 -2 13 -5z m-300 -10 c-3 -3 -12 -4 -19 -1 -8 3 -5 6
6 6 11 1 17 -2 13 -5z m176 -1 c-7 -2 -19 -2 -25 0 -7 3 -2 5 12 5 14 0 19 -2
13 -5z m-126 -9 c-3 -3 -12 -4 -19 -1 -8 3 -5 6 6 6 11 1 17 -2 13 -5z m190 0
c-3 -3 -12 -4 -19 -1 -8 3 -5 6 6 6 11 1 17 -2 13 -5z m-130 -10 c-3 -3 -12
-4 -19 -1 -8 3 -5 6 6 6 11 1 17 -2 13 -5z m-100 -10 c-3 -3 -12 -4 -19 -1 -8
3 -5 6 6 6 11 1 17 -2 13 -5z m160 0 c-3 -3 -12 -4 -19 -1 -8 3 -5 6 6 6 11 1
17 -2 13 -5z m-332 -14 c3 -6 -1 -7 -9 -4 -18 7 -21 14 -7 14 6 0 13 -4 16
-10z m382 4 c-3 -3 -12 -4 -19 -1 -8 3 -5 6 6 6 11 1 17 -2 13 -5z m-220 -40
c-3 -3 -12 -4 -19 -1 -8 3 -5 6 6 6 11 1 17 -2 13 -5z m110 0 c-3 -3 -12 -4
-19 -1 -8 3 -5 6 6 6 11 1 17 -2 13 -5z m40 -10 c-3 -3 -12 -4 -19 -1 -8 3 -5
6 6 6 11 1 17 -2 13 -5z m-177 -84 c8 -5 11 -10 5 -10 -5 0 -17 5 -25 10 -8 5
-10 10 -5 10 6 0 17 -5 25 -10z m9 -56 c14 -12 -19 -1 -35 12 -18 14 -18 14 6
3 14 -6 27 -13 29 -15z m141 -34 c8 -5 11 -10 5 -10 -5 0 -17 5 -25 10 -8 5
-10 10 -5 10 6 0 17 -5 25 -10z m80 -30 c8 -5 11 -10 5 -10 -5 0 -17 5 -25 10
-8 5 -10 10 -5 10 6 0 17 -5 25 -10z m-34 -88 c-5 -4 -166 76 -166 83 0 3 38
-14 85 -37 46 -23 83 -44 81 -46z m1284 33 c0 -10 -137 -74 -224 -104 -128
-45 -170 -53 -202 -39 -23 11 -24 13 -7 19 10 4 32 8 48 9 29 2 29 2 5 9 -14
4 -35 4 -48 -1 -34 -12 -38 -10 -16 7 10 8 33 15 49 16 l30 1 -30 8 c-19 5 13
8 87 7 64 -1 114 0 112 2 -2 3 33 15 77 28 45 13 89 28 98 33 19 11 21 12 21
5z m-1240 -45 c8 -5 11 -10 5 -10 -5 0 -17 5 -25 10 -8 5 -10 10 -5 10 6 0 17
-5 25 -10z m813 -117 c-7 -2 -21 -2 -30 0 -10 3 -4 5 12 5 17 0 24 -2 18 -5z"/>
<path d="M1390 1626 c0 -2 8 -10 18 -17 15 -13 16 -12 3 4 -13 16 -21 21 -21
13z"/>
<path d="M1622 1400 c0 -3 -1 -7 -2 -10 -8 -22 -6 -41 8 -52 13 -11 14 -11 7
1 -6 11 -4 13 8 8 10 -4 16 -2 14 6 -1 7 8 11 23 10 25 -3 24 -2 -4 13 -21 12
-25 18 -16 24 8 5 4 8 -13 7 -14 -1 -25 -4 -25 -7z m33 -20 c4 -6 -1 -7 -11
-3 -11 4 -15 3 -10 -5 3 -6 2 -13 -3 -16 -7 -5 -8 11 -2 32 2 6 21 1 26 -8z"/>
<path d="M1560 1395 c0 -2 6 -8 13 -14 10 -8 14 -7 14 2 0 8 -6 14 -14 14 -7
0 -13 -1 -13 -2z"/>
<path d="M1695 1310 c3 -5 11 -10 16 -10 6 0 7 5 4 10 -3 6 -11 10 -16 10 -6
0 -7 -4 -4 -10z"/>
</g>
</svg>
